# xmcd CD database file
#
# Track frame offsets:
#	150
#	13974
#	25692
#	38841
#	55716
#	71781
#	86118
#	101805
#	119625
#	132531
#	149676
#	167928
#	183156
#
# Disc length: 2661 seconds
#
# Revision: 0
# Processed by: cddbd v1.5.2PL0 Copyright (c) Steve Scherf et al.
# Submitted via: CDex 1.51
#
DISCID=c40a630d
DTITLE=J. Kirby's Band - Rocky Tequila
DYEAR=1997
DGENRE=Country
TTITLE0=Rocky Tequila
TTITLE1=Out Of The Frying Pan
TTITLE2=Ten To Midnight
TTITLE3=Everybody Likes Me But You
TTITLE4=Play It Anyway
TTITLE5=One Step Out Of Time
TTITLE6=Hit And Run
TTITLE7=Run With The Buffalo
TTITLE8=Riding The Sun
TTITLE9=The Logic Of A Gun
TTITLE10=Lucky Luke
TTITLE11=I'm Walkin'
TTITLE12=We Got Love
EXTD=YEAR: 1997
EXTT0=
EXTT1=
EXTT2=
EXTT3=
EXTT4=
EXTT5=
EXTT6=
EXTT7=
EXTT8=
EXTT9=
EXTT10=
EXTT11=
EXTT12=
PLAYORDER=
